#N canvas 7 356 954 724 12;
#X obj 22 196 osc~ 440;
#X obj 22 332 dac~;
#X floatatom 33 76 5 0 0 0 - - -;
#X floatatom 161 156 5 0 0 0 - - -;
#X obj 161 196 osc~;
#X obj 161 119 * 2;
#X obj 158 236 *~ 0.75;
#X obj 23 280 *~ 0.25;
#X obj 240 112 * 3;
#X floatatom 241 155 5 0 0 0 - - -;
#X obj 240 191 osc~;
#X obj 243 236 *~ 0.6;
#X obj 302 103 * 4;
#X floatatom 303 154 5 0 0 0 - - -;
#X obj 306 193 osc~;
#X obj 366 97 * 5;
#X floatatom 366 150 5 0 0 0 - - -;
#X obj 370 193 osc~;
#X obj 385 249 *~ 0.4;
#X obj 316 239 *~ 0.5;
#X obj 25 7 loadbang;
#X msg 36 40 440;
#X connect 0 0 7 0;
#X connect 2 0 0 0;
#X connect 2 0 5 0;
#X connect 2 0 8 0;
#X connect 2 0 12 0;
#X connect 2 0 15 0;
#X connect 3 0 4 0;
#X connect 4 0 6 0;
#X connect 5 0 3 0;
#X connect 6 0 7 0;
#X connect 7 0 1 0;
#X connect 7 0 1 1;
#X connect 8 0 9 0;
#X connect 9 0 10 0;
#X connect 10 0 11 0;
#X connect 11 0 7 0;
#X connect 12 0 13 0;
#X connect 13 0 14 0;
#X connect 14 0 19 0;
#X connect 15 0 16 0;
#X connect 16 0 17 0;
#X connect 17 0 18 0;
#X connect 18 0 7 0;
#X connect 19 0 7 0;
#X connect 20 0 21 0;
#X connect 21 0 2 0;
