#N canvas 17 463 925 595 12;
#X obj 31 14 noise~;
#X obj 32 72 *~ 0.5;
#X obj 30 125 *~;
#X obj 153 171 line;
#X obj 151 10 bng 15 250 50 0 empty empty empty 17 7 0 10 -262144 -1
-1;
#X floatatom 152 195 5 0 0 0 - - -;
#X msg 151 37 1 1000;
#X obj 236 23 delay 1000;
#X obj 236 50 bng 15 250 50 0 empty empty empty 17 7 0 10 -262144 -1
-1;
#X msg 236 105 0.5 1000;
#X obj 334 101 bng 15 250 50 0 empty empty empty 17 7 0 10 -262144
-1 -1;
#X msg 335 127 0 1000;
#X obj 30 158 *~ 0.25;
#X obj 30 208 dac~;
#X obj 334 71 delay 3000;
#X connect 0 0 1 0;
#X connect 1 0 2 0;
#X connect 2 0 12 0;
#X connect 3 0 5 0;
#X connect 4 0 6 0;
#X connect 4 0 7 0;
#X connect 5 0 2 1;
#X connect 6 0 3 0;
#X connect 7 0 8 0;
#X connect 8 0 9 0;
#X connect 8 0 14 0;
#X connect 9 0 3 0;
#X connect 10 0 11 0;
#X connect 11 0 3 0;
#X connect 12 0 13 0;
#X connect 12 0 13 1;
#X connect 14 0 10 0;
