#N canvas 123 522 952 505 12;
#X obj 27 22 noise~;
#X obj 35 140 dac~;
#X floatatom 99 35 5 0 0 0 - - -;
#X obj 175 14 noise~;
#X obj 185 136 dac~;
#X floatatom 249 31 5 0 0 0 - - -;
#X obj 188 53 hip~;
#X obj 38 57 lop~;
#X obj 309 21 noise~;
#X obj 319 143 dac~;
#X floatatom 378 13 5 0 0 0 - - -;
#X obj 322 60 bp~ 220 1;
#X floatatom 435 20 5 0 0 0 - - -;
#X obj 29 95 *~ 0.01;
#X obj 179 91 *~ 0.01;
#X obj 313 98 *~ 0.5;
#X connect 0 0 7 0;
#X connect 2 0 7 1;
#X connect 3 0 6 0;
#X connect 5 0 6 1;
#X connect 6 0 14 0;
#X connect 7 0 13 0;
#X connect 8 0 11 0;
#X connect 10 0 11 1;
#X connect 11 0 15 0;
#X connect 12 0 11 2;
#X connect 13 0 1 0;
#X connect 13 0 1 1;
#X connect 14 0 4 0;
#X connect 14 0 4 1;
#X connect 15 0 9 0;
#X connect 15 0 9 1;
